<svg width="157" height="102" viewBox="0 0 157 102" fill="none" xmlns="http://www.w3.org/2000/svg">
<path d="M79.0837 2L128.083 50.9988L79.0837 99.9976L30.085 50.9988L79.0837 2Z" fill="white"/>
<path d="M79.0837 2L128.083 50.9988L79.0837 99.9976L30.085 50.9988L79.0837 2Z" stroke="black" stroke-width="1.99999"/>
<path d="M1 31.1321H155.286V75.4652H1V31.1321Z" fill="white"/>
<path d="M1 31.1321H155.286V75.4652H1V31.1321Z" stroke="black" stroke-width="1.99999"/>
<path d="M1 50.9988H155.286V52.8801H1V50.9988Z" fill="black"/>
<path d="M45.2577 51.9395H47.3836V75.4653H45.2577V51.9395Z" fill="black"/>
<path d="M9.40625 40.9844H13.6543V46.5361C12.9658 46.7607 12.3164 46.917 11.7061 47.0049C11.1006 47.0977 10.4805 47.144 9.8457 47.144C8.22949 47.144 6.99414 46.6704 6.13965 45.7231C5.29004 44.771 4.86523 43.4062 4.86523 41.6289C4.86523 39.9004 5.3584 38.5527 6.34473 37.5859C7.33594 36.6191 8.70801 36.1357 10.4609 36.1357C11.5596 36.1357 12.6191 36.3555 13.6396 36.7949L12.8853 38.6113C12.104 38.2207 11.291 38.0254 10.4463 38.0254C9.46484 38.0254 8.67871 38.355 8.08789 39.0142C7.49707 39.6733 7.20166 40.5596 7.20166 41.6729C7.20166 42.835 7.43848 43.7236 7.91211 44.3389C8.39062 44.9492 9.08398 45.2544 9.99219 45.2544C10.4658 45.2544 10.9468 45.2056 11.4351 45.1079V42.874H9.40625V40.9844ZM25.9297 41.6289C25.9297 43.4014 25.4902 44.7637 24.6113 45.7158C23.7324 46.668 22.4727 47.144 20.832 47.144C19.1914 47.144 17.9316 46.668 17.0527 45.7158C16.1738 44.7637 15.7344 43.3965 15.7344 41.6143C15.7344 39.832 16.1738 38.4722 17.0527 37.5347C17.9365 36.5923 19.2012 36.1211 20.8467 36.1211C22.4922 36.1211 23.7495 36.5947 24.6187 37.542C25.4927 38.4893 25.9297 39.8516 25.9297 41.6289ZM18.1147 41.6289C18.1147 42.8252 18.3418 43.7261 18.7959 44.3315C19.25 44.937 19.9287 45.2397 20.832 45.2397C22.6436 45.2397 23.5493 44.0361 23.5493 41.6289C23.5493 39.2168 22.6484 38.0107 20.8467 38.0107C19.9434 38.0107 19.2622 38.3159 18.8032 38.9263C18.3442 39.5317 18.1147 40.4326 18.1147 41.6289ZM32.0454 36.2896H35.3779C36.8965 36.2896 37.9976 36.5068 38.6812 36.9414C39.3696 37.3711 39.7139 38.0571 39.7139 38.9995C39.7139 39.6392 39.5625 40.1641 39.2598 40.5742C38.9619 40.9844 38.564 41.231 38.0659 41.314V41.3872C38.7446 41.5386 39.2329 41.8218 39.5308 42.2368C39.8335 42.6519 39.9849 43.2036 39.9849 43.8921C39.9849 44.8687 39.6309 45.6304 38.9229 46.1772C38.2197 46.7241 37.2627 46.9976 36.0518 46.9976H32.0454V36.2896ZM34.3159 40.5303H35.6343C36.2495 40.5303 36.6938 40.4351 36.9673 40.2446C37.2456 40.0542 37.3848 39.7393 37.3848 39.2998C37.3848 38.8896 37.2334 38.5967 36.9307 38.4209C36.6328 38.2402 36.1592 38.1499 35.5098 38.1499H34.3159V40.5303ZM34.3159 42.332V45.1226H35.7954C36.4204 45.1226 36.8818 45.0029 37.1797 44.7637C37.4775 44.5244 37.6265 44.1582 37.6265 43.665C37.6265 42.7764 36.9917 42.332 35.7222 42.332H34.3159ZM50.8394 36.2896V43.2183C50.8394 44.0093 50.6611 44.7026 50.3047 45.2983C49.9531 45.894 49.4429 46.3506 48.7739 46.668C48.105 46.9854 47.314 47.144 46.4009 47.144C45.0239 47.144 43.9546 46.7925 43.1929 46.0894C42.4312 45.3813 42.0503 44.4146 42.0503 43.189V36.2896H44.3135V42.8447C44.3135 43.6699 44.4795 44.2754 44.8115 44.6611C45.1436 45.0469 45.6929 45.2397 46.4595 45.2397C47.2017 45.2397 47.7388 45.0469 48.0708 44.6611C48.4077 44.2705 48.5762 43.6602 48.5762 42.8301V36.2896H50.8394ZM53.4614 46.9976V36.2896H55.7319V46.9976H53.4614ZM58.4272 46.9976V36.2896H60.6978V45.1226H65.041V46.9976H58.4272ZM75.793 41.541C75.793 43.3037 75.29 44.6538 74.2842 45.5913C73.2832 46.5288 71.8354 46.9976 69.9409 46.9976H66.9087V36.2896H70.2705C72.0186 36.2896 73.376 36.751 74.3428 37.6738C75.3096 38.5967 75.793 39.8857 75.793 41.541ZM73.4346 41.5996C73.4346 39.2998 72.4189 38.1499 70.3877 38.1499H69.1792V45.1226H70.1533C72.3408 45.1226 73.4346 43.9482 73.4346 41.5996ZM92.3384 46.9976H89.7529L88.3027 41.3726C88.249 41.1724 88.1562 40.7598 88.0244 40.1348C87.8975 39.5049 87.8242 39.0825 87.8047 38.8677C87.7754 39.1313 87.7021 39.5562 87.585 40.1421C87.4678 40.7231 87.3774 41.1382 87.314 41.3872L85.8711 46.9976H83.293L80.561 36.2896H82.7949L84.1646 42.1343C84.4038 43.2134 84.5771 44.1484 84.6846 44.9395C84.7139 44.6611 84.7798 44.2314 84.8823 43.6504C84.9897 43.0645 85.0898 42.6104 85.1826 42.2881L86.7427 36.2896H88.8887L90.4487 42.2881C90.5171 42.5566 90.6025 42.9668 90.7051 43.5186C90.8076 44.0703 90.8857 44.5439 90.9395 44.9395C90.9883 44.5586 91.0664 44.085 91.1738 43.5186C91.2812 42.9473 91.3789 42.4858 91.4668 42.1343L92.8291 36.2896H95.063L92.3384 46.9976ZM102.578 46.9976H96.4106V36.2896H102.578V38.1499H98.6812V40.501H102.307V42.3613H98.6812V45.1226H102.578V46.9976ZM104.819 36.2896H108.151C109.67 36.2896 110.771 36.5068 111.455 36.9414C112.143 37.3711 112.487 38.0571 112.487 38.9995C112.487 39.6392 112.336 40.1641 112.033 40.5742C111.735 40.9844 111.337 41.231 110.839 41.314V41.3872C111.518 41.5386 112.006 41.8218 112.304 42.2368C112.607 42.6519 112.758 43.2036 112.758 43.8921C112.758 44.8687 112.404 45.6304 111.696 46.1772C110.993 46.7241 110.036 46.9976 108.825 46.9976H104.819V36.2896ZM107.089 40.5303H108.408C109.023 40.5303 109.467 40.4351 109.741 40.2446C110.019 40.0542 110.158 39.7393 110.158 39.2998C110.158 38.8896 110.007 38.5967 109.704 38.4209C109.406 38.2402 108.933 38.1499 108.283 38.1499H107.089V40.5303ZM107.089 42.332V45.1226H108.569C109.194 45.1226 109.655 45.0029 109.953 44.7637C110.251 44.5244 110.4 44.1582 110.4 43.665C110.4 42.7764 109.765 42.332 108.496 42.332H107.089ZM121.218 44.0239C121.218 44.9907 120.869 45.7524 120.17 46.3091C119.477 46.8657 118.51 47.144 117.27 47.144C116.127 47.144 115.117 46.9292 114.238 46.4995V44.3901C114.96 44.7124 115.571 44.9395 116.069 45.0713C116.572 45.2031 117.031 45.269 117.446 45.269C117.944 45.269 118.325 45.1738 118.588 44.9834C118.857 44.793 118.991 44.5098 118.991 44.1338C118.991 43.9238 118.933 43.7383 118.815 43.5771C118.698 43.4111 118.525 43.2524 118.295 43.1011C118.071 42.9497 117.609 42.708 116.911 42.376C116.257 42.0684 115.766 41.7729 115.439 41.4897C115.112 41.2065 114.851 40.877 114.655 40.501C114.46 40.125 114.362 39.6855 114.362 39.1826C114.362 38.2354 114.682 37.4907 115.322 36.9487C115.966 36.4067 116.855 36.1357 117.988 36.1357C118.544 36.1357 119.074 36.2017 119.577 36.3335C120.085 36.4653 120.615 36.6509 121.167 36.8901L120.434 38.6553C119.863 38.4209 119.389 38.2573 119.013 38.1646C118.642 38.0718 118.276 38.0254 117.915 38.0254C117.485 38.0254 117.155 38.1255 116.926 38.3257C116.696 38.5259 116.582 38.7871 116.582 39.1094C116.582 39.3096 116.628 39.4854 116.721 39.6367C116.813 39.7832 116.96 39.9272 117.16 40.0688C117.365 40.2056 117.846 40.4546 118.603 40.8159C119.604 41.2944 120.29 41.7754 120.661 42.2588C121.032 42.7373 121.218 43.3257 121.218 44.0239ZM123.159 46.9976V36.2896H125.429V46.9976H123.159ZM132.255 46.9976H129.985V38.1792H127.077V36.2896H135.163V38.1792H132.255V46.9976ZM142.978 46.9976H136.811V36.2896H142.978V38.1499H139.082V40.501H142.707V42.3613H139.082V45.1226H142.978V46.9976ZM151.54 44.0239C151.54 44.9907 151.191 45.7524 150.493 46.3091C149.799 46.8657 148.833 47.144 147.592 47.144C146.45 47.144 145.439 46.9292 144.56 46.4995V44.3901C145.283 44.7124 145.893 44.9395 146.391 45.0713C146.894 45.2031 147.353 45.269 147.768 45.269C148.266 45.269 148.647 45.1738 148.911 44.9834C149.179 44.793 149.313 44.5098 149.313 44.1338C149.313 43.9238 149.255 43.7383 149.138 43.5771C149.021 43.4111 148.847 43.2524 148.618 43.1011C148.393 42.9497 147.932 42.708 147.233 42.376C146.579 42.0684 146.088 41.7729 145.761 41.4897C145.434 41.2065 145.173 40.877 144.978 40.501C144.782 40.125 144.685 39.6855 144.685 39.1826C144.685 38.2354 145.004 37.4907 145.644 36.9487C146.289 36.4067 147.177 36.1357 148.31 36.1357C148.867 36.1357 149.396 36.2017 149.899 36.3335C150.407 36.4653 150.937 36.6509 151.489 36.8901L150.756 38.6553C150.185 38.4209 149.711 38.2573 149.335 38.1646C148.964 38.0718 148.598 38.0254 148.237 38.0254C147.807 38.0254 147.478 38.1255 147.248 38.3257C147.019 38.5259 146.904 38.7871 146.904 39.1094C146.904 39.3096 146.95 39.4854 147.043 39.6367C147.136 39.7832 147.282 39.9272 147.482 40.0688C147.688 40.2056 148.168 40.4546 148.925 40.8159C149.926 41.2944 150.612 41.7754 150.983 42.2588C151.354 42.7373 151.54 43.3257 151.54 44.0239Z" fill="black"/>
<path d="M60.1157 68.9976H57.8525V64.376H53.6118V68.9976H51.3413V58.2896H53.6118V62.4863H57.8525V58.2896H60.1157V68.9976ZM67.7065 68.9976H65.436V60.1792H62.5283V58.2896H70.6143V60.1792H67.7065V68.9976ZM77.5459 68.9976L74.9678 60.5967H74.9019C74.9946 62.3057 75.041 63.4458 75.041 64.0171V68.9976H73.0122V58.2896H76.103L78.6372 66.478H78.6812L81.3691 58.2896H84.46V68.9976H82.3433V63.9292C82.3433 63.6899 82.3457 63.4141 82.3506 63.1016C82.3604 62.7891 82.3945 61.959 82.4531 60.6113H82.3872L79.626 68.9976H77.5459ZM87.9126 68.9976V58.2896H90.1831V67.1226H94.5264V68.9976H87.9126ZM101.919 58.2896L97.9277 68.9976H95.8989L99.8906 58.2896H101.919ZM108.639 60.0254C107.784 60.0254 107.123 60.3477 106.654 60.9922C106.185 61.6318 105.951 62.5254 105.951 63.6729C105.951 66.0605 106.847 67.2544 108.639 67.2544C109.391 67.2544 110.301 67.0664 111.371 66.6904V68.5947C110.492 68.9609 109.51 69.144 108.426 69.144C106.869 69.144 105.677 68.6729 104.852 67.7305C104.027 66.7832 103.614 65.4258 103.614 63.6582C103.614 62.5449 103.817 61.5708 104.222 60.7358C104.627 59.896 105.208 59.2539 105.965 58.8096C106.727 58.3604 107.618 58.1357 108.639 58.1357C109.679 58.1357 110.724 58.3872 111.773 58.8901L111.041 60.7358C110.641 60.5454 110.238 60.3794 109.833 60.2378C109.427 60.0962 109.029 60.0254 108.639 60.0254ZM120.727 66.0239C120.727 66.9907 120.377 67.7524 119.679 68.3091C118.986 68.8657 118.019 69.144 116.779 69.144C115.636 69.144 114.625 68.9292 113.747 68.4995V66.3901C114.469 66.7124 115.08 66.9395 115.578 67.0713C116.081 67.2031 116.54 67.269 116.955 67.269C117.453 67.269 117.833 67.1738 118.097 66.9834C118.366 66.793 118.5 66.5098 118.5 66.1338C118.5 65.9238 118.441 65.7383 118.324 65.5771C118.207 65.4111 118.034 65.2524 117.804 65.1011C117.58 64.9497 117.118 64.708 116.42 64.376C115.766 64.0684 115.275 63.7729 114.948 63.4897C114.621 63.2065 114.359 62.877 114.164 62.501C113.969 62.125 113.871 61.6855 113.871 61.1826C113.871 60.2354 114.191 59.4907 114.831 58.9487C115.475 58.4067 116.364 58.1357 117.497 58.1357C118.053 58.1357 118.583 58.2017 119.086 58.3335C119.594 58.4653 120.124 58.6509 120.675 58.8901L119.943 60.6553C119.372 60.4209 118.898 60.2573 118.522 60.1646C118.151 60.0718 117.785 60.0254 117.423 60.0254C116.994 60.0254 116.664 60.1255 116.435 60.3257C116.205 60.5259 116.09 60.7871 116.09 61.1094C116.09 61.3096 116.137 61.4854 116.229 61.6367C116.322 61.7832 116.469 61.9272 116.669 62.0688C116.874 62.2056 117.355 62.4546 118.112 62.8159C119.113 63.2944 119.799 63.7754 120.17 64.2588C120.541 64.7373 120.727 65.3257 120.727 66.0239ZM129.738 66.0239C129.738 66.9907 129.389 67.7524 128.691 68.3091C127.998 68.8657 127.031 69.144 125.791 69.144C124.648 69.144 123.637 68.9292 122.758 68.4995V66.3901C123.481 66.7124 124.091 66.9395 124.589 67.0713C125.092 67.2031 125.551 67.269 125.966 67.269C126.464 67.269 126.845 67.1738 127.109 66.9834C127.377 66.793 127.512 66.5098 127.512 66.1338C127.512 65.9238 127.453 65.7383 127.336 65.5771C127.219 65.4111 127.045 65.2524 126.816 65.1011C126.591 64.9497 126.13 64.708 125.432 64.376C124.777 64.0684 124.287 63.7729 123.959 63.4897C123.632 63.2065 123.371 62.877 123.176 62.501C122.98 62.125 122.883 61.6855 122.883 61.1826C122.883 60.2354 123.203 59.4907 123.842 58.9487C124.487 58.4067 125.375 58.1357 126.508 58.1357C127.065 58.1357 127.595 58.2017 128.098 58.3335C128.605 58.4653 129.135 58.6509 129.687 58.8901L128.955 60.6553C128.383 60.4209 127.91 60.2573 127.534 60.1646C127.163 60.0718 126.796 60.0254 126.435 60.0254C126.005 60.0254 125.676 60.1255 125.446 60.3257C125.217 60.5259 125.102 60.7871 125.102 61.1094C125.102 61.3096 125.148 61.4854 125.241 61.6367C125.334 61.7832 125.48 61.9272 125.681 62.0688C125.886 62.2056 126.367 62.4546 127.124 62.8159C128.125 63.2944 128.811 63.7754 129.182 64.2588C129.553 64.7373 129.738 65.3257 129.738 66.0239ZM137.205 58.2896L133.213 68.9976H131.184L135.176 58.2896H137.205ZM138.255 72.147C137.742 72.147 137.295 72.0933 136.915 71.9858V70.0962C137.305 70.1938 137.662 70.2427 137.984 70.2427C138.482 70.2427 138.838 70.0864 139.053 69.7739C139.268 69.4663 139.375 68.9829 139.375 68.3237V58.2896H141.646V68.3091C141.646 69.5591 141.36 70.5112 140.789 71.1655C140.218 71.8198 139.373 72.147 138.255 72.147ZM151.412 66.0239C151.412 66.9907 151.063 67.7524 150.365 68.3091C149.671 68.8657 148.705 69.144 147.464 69.144C146.322 69.144 145.311 68.9292 144.432 68.4995V66.3901C145.155 66.7124 145.765 66.9395 146.263 67.0713C146.766 67.2031 147.225 67.269 147.64 67.269C148.138 67.269 148.519 67.1738 148.783 66.9834C149.051 66.793 149.186 66.5098 149.186 66.1338C149.186 65.9238 149.127 65.7383 149.01 65.5771C148.893 65.4111 148.719 65.2524 148.49 65.1011C148.265 64.9497 147.804 64.708 147.105 64.376C146.451 64.0684 145.96 63.7729 145.633 63.4897C145.306 63.2065 145.045 62.877 144.85 62.501C144.654 62.125 144.557 61.6855 144.557 61.1826C144.557 60.2354 144.876 59.4907 145.516 58.9487C146.161 58.4067 147.049 58.1357 148.182 58.1357C148.739 58.1357 149.269 58.2017 149.771 58.3335C150.279 58.4653 150.809 58.6509 151.361 58.8901L150.628 60.6553C150.057 60.4209 149.583 60.2573 149.208 60.1646C148.836 60.0718 148.47 60.0254 148.109 60.0254C147.679 60.0254 147.35 60.1255 147.12 60.3257C146.891 60.5259 146.776 60.7871 146.776 61.1094C146.776 61.3096 146.822 61.4854 146.915 61.6367C147.008 61.7832 147.154 61.9272 147.354 62.0688C147.56 62.2056 148.041 62.4546 148.797 62.8159C149.798 63.2944 150.484 63.7754 150.855 64.2588C151.227 64.7373 151.412 65.3257 151.412 66.0239Z" fill="black"/>
<rect x="3.99365" y="54.9976" width="13.3171" height="2" fill="black"/>
<rect x="18.2621" y="54.9976" width="6.65854" height="2" fill="black"/>
<rect x="25.8716" y="54.9976" width="6.65854" height="2" fill="black"/>
<rect x="33.4817" y="54.9976" width="9.5122" height="2" fill="black"/>
<rect x="3.99365" y="57.9976" width="6.65854" height="2" fill="black"/>
<rect x="11.6033" y="57.9976" width="2.85366" height="2" fill="black"/>
<rect x="15.4084" y="57.9976" width="2.85366" height="2" fill="black"/>
<rect x="19.2133" y="57.9976" width="9.5122" height="2" fill="black"/>
<rect x="29.6764" y="57.9976" width="13.3171" height="2" fill="black"/>
<rect width="6.65854" height="2" transform="matrix(-1 0 0 1 42.9937 69.9976)" fill="black"/>
<rect width="2.85366" height="2" transform="matrix(-1 0 0 1 35.384 69.9976)" fill="black"/>
<rect width="2.85366" height="2" transform="matrix(-1 0 0 1 31.5789 69.9976)" fill="black"/>
<rect width="9.5122" height="2" transform="matrix(-1 0 0 1 27.774 69.9976)" fill="black"/>
<rect width="13.3171" height="2" transform="matrix(-1 0 0 1 17.3109 69.9976)" fill="black"/>
<rect x="3.99365" y="60.9976" width="10.4634" height="2" fill="black"/>
<rect x="15.4084" y="60.9976" width="6.65854" height="2" fill="black"/>
<rect x="23.0181" y="60.9976" width="19.9756" height="2" fill="black"/>
<rect x="3.99365" y="63.9976" width="6.65854" height="2" fill="black"/>
<rect x="11.6033" y="63.9976" width="6.65854" height="2" fill="black"/>
<rect x="19.2133" y="63.9976" width="9.5122" height="2" fill="black"/>
<rect x="29.6764" y="63.9976" width="13.3171" height="2" fill="black"/>
<rect x="3.99365" y="66.9976" width="3.80488" height="2" fill="black"/>
<rect x="8.74963" y="66.9976" width="13.3171" height="2" fill="black"/>
<rect x="23.0181" y="66.9976" width="19.9756" height="2" fill="black"/>
</svg>
